<svg xmlns="http://www.w3.org/2000/svg" xmlns:xlink="http://www.w3.org/1999/xlink" width="483.51" height="487.23" viewBox="0 0 483.51 487.23"><defs><style>.a{fill-rule:evenodd;fill:url(#a);}</style><linearGradient id="a" x1="91.7428" y1="128.7873" x2="511.5854" y2="371.1836" gradientUnits="userSpaceOnUse"><stop offset="0" stop-color="#a85dc3"/><stop offset="0.2445" stop-color="#8d69c7"/><stop offset="0.4888" stop-color="#6d76cc"/><stop offset="0.9869" stop-color="#0b9fdb"/><stop offset="0.9944" stop-color="#09a0db"/></linearGradient></defs><title>icon</title><path class="a" d="M416.66,436.88c5.27,14.52,6.4,24.9-8.42,31.61C378.09,482.16,343.53,493,308.34,493h-.79c-26.88-.09-17.54-22.3-9.75-46.86,5.24-16.55,20.21-75.95,32.15-92.56,15.95-22.19,43.84-18.51,55.04-4.39C396.05,363.13,407.09,410.54,416.66,436.88ZM301.69,5.77C168.17,5.77,59.94,115.09,59.94,249.95c0,92.03,51.42,173.1,125.99,214.54a22.9647,22.9647,0,0,0,32.79-12.65L322.33,152.77c10.51-30.35,53.44-30.35,63.96,0L464.4,378.28c6.1,17.62,29.83,20.5,39.95,4.83a244.6584,244.6584,0,0,0,39.1-133.16C543.45,115.09,435.22,5.77,301.69,5.77Z" transform="translate(-59.94 -5.77)"/></svg>