<svg xmlns="http://www.w3.org/2000/svg" xmlns:xlink="http://www.w3.org/1999/xlink" width="2144.3432" height="487.23" viewBox="0 0 2144.3432 487.23"><defs><style>.a{fill:#fff;}.b{fill-rule:evenodd;fill:url(#a);}</style><linearGradient id="a" x1="91.7428" y1="128.7873" x2="511.5854" y2="371.1836" gradientUnits="userSpaceOnUse"><stop offset="0" stop-color="#a85dc3"/><stop offset="0.2445" stop-color="#8d69c7"/><stop offset="0.4888" stop-color="#6d76cc"/><stop offset="0.9869" stop-color="#0b9fdb"/><stop offset="0.9944" stop-color="#09a0db"/></linearGradient></defs><title>LOGO FINAL - AFONSOV</title><path class="a" d="M797.9131,162.2217H835.19l71.35,176.2392H863.1753l-13.0313-35.248H783.0664l-13.0308,35.248H726.67Zm38.5591,105.7431-19.8667-51.269-19.8672,51.269Z" transform="translate(-59.94 -5.77)"/><path class="a" d="M967.2051,338.4609V162.2217h101.8984V197.47h-61.7373v35.0342h57.0381V267.752h-57.0381v70.7089Z" transform="translate(-59.94 -5.77)"/><path class="a" d="M1226.8613,159.0176c49.3467,0,88.8672,40.6953,88.8672,91.4306s-39.52,91.4307-88.8672,91.4307-88.8672-40.6953-88.8672-91.4307S1177.5137,159.0176,1226.8613,159.0176Zm0,144.1953c27.0235,0,45.6075-21.5762,45.6075-52.7647s-18.584-52.7646-45.6075-52.7646-45.6093,21.5757-45.6093,52.7646S1199.8379,303.2129,1226.8613,303.2129Z" transform="translate(-59.94 -5.77)"/><path class="a" d="M1427.3428,162.2217l70.2822,109.4814V162.2217h40.1611V338.4609H1497.625l-70.2822-109.375v109.375h-40.1612V162.2217Z" transform="translate(-59.94 -5.77)"/><path class="a" d="M1625.0508,286.3369c14.8457,11.749,30.7617,18.3721,44.7539,18.3721,14.2051,0,22.8574-6.9434,22.8574-16.9834,0-9.72-7.05-15.3809-31.1894-25.3145-33.1114-13.6718-46.5694-28.4121-46.5694-50.6289,0-27.2368,23.3916-52.7646,60.669-52.7646,19.5468,0,40.1611,7.2632,51.4824,16.876l-17.1963,30.8686c-10.2539-6.6221-23.3916-11.2153-34.7139-11.2153-13.3515,0-20.9345,6.8359-20.9345,15.2744,0,7.4766,6.3017,12.71,28.1982,21.2554,32.4707,12.71,54.26,25.9546,54.26,54.7944,0,34.7139-26.3819,55.0078-65.3682,55.0078-27.0234,0-52.7646-10.2539-66.33-24.9941Z" transform="translate(-59.94 -5.77)"/><path class="a" d="M1890.1523,159.0176c49.3467,0,88.8672,40.6953,88.8672,91.4306s-39.5205,91.4307-88.8672,91.4307-88.8671-40.6953-88.8671-91.4307S1840.8047,159.0176,1890.1523,159.0176Zm0,144.1953c27.0235,0,45.6075-21.5762,45.6075-52.7647s-18.584-52.7646-45.6075-52.7646-45.6093,21.5757-45.6093,52.7646S1863.1289,303.2129,1890.1523,303.2129Z" transform="translate(-59.94 -5.77)"/><path class="a" d="M2070.2344,162.2217l44.3271,115.7842,44.3272-115.7842h45.3945l-73.9141,176.2392h-31.6152L2024.84,162.2217Z" transform="translate(-59.94 -5.77)"/><path class="b" d="M416.66,436.88c5.27,14.52,6.4,24.9-8.42,31.61C378.09,482.16,343.53,493,308.34,493h-.79c-26.88-.09-17.54-22.3-9.75-46.86,5.24-16.55,20.21-75.95,32.15-92.56,15.95-22.19,43.84-18.51,55.04-4.39C396.05,363.13,407.09,410.54,416.66,436.88ZM301.69,5.77C168.17,5.77,59.94,115.09,59.94,249.95c0,92.03,51.42,173.1,125.99,214.54a22.9647,22.9647,0,0,0,32.79-12.65L322.33,152.77c10.51-30.35,53.44-30.35,63.96,0L464.4,378.28c6.1,17.62,29.83,20.5,39.95,4.83a244.6584,244.6584,0,0,0,39.1-133.16C543.45,115.09,435.22,5.77,301.69,5.77Z" transform="translate(-59.94 -5.77)"/></svg>